# xmcd CD database file
#
# Track frame offsets:
#	150
#	20587
#	43225
#
# Disc length: 847 seconds
#
# Revision: 0
# Processed by: cddbd v1.5PL3 Copyright (c) Steve Scherf et al.
# Submitted via: CDex 1.50beta9
#
DISCID=21034d03
DTITLE=久保田利伸 - 夜に抱かれて〜A Night in Afro Blue〜
DYEAR=1994
DGENRE=J-POP
TTITLE0=夜に抱かれて〜A Night in Afro Blue〜
TTITLE1=JAM WIZ ME
TTITLE2=夜に抱かれて〜A Night in Afro Blue〜 カラオケ
EXTD=YEAR: 1994
EXTT0=
EXTT1=
EXTT2=
PLAYORDER=
